<?xml version="1.0" standalone="no"?>
<!DOCTYPE svg PUBLIC "-//W3C//DTD SVG 20010904//EN"
 "http://www.w3.org/TR/2001/REC-SVG-20010904/DTD/svg10.dtd">
<svg version="1.0" xmlns="http://www.w3.org/2000/svg"
 width="1000.000000pt" height="1000.000000pt" viewBox="0 0 1000.000000 1000.000000"
 preserveAspectRatio="xMidYMid meet">
<metadata>
Created by potrace 1.11, written by Peter Selinger 2001-2013
</metadata>
<g transform="translate(0.000000,1000.000000) scale(0.100000,-0.100000)"
fill="#000000" stroke="none">
<path d="M4645 9699 c-827 -64 -1646 -352 -2315 -817 -1057 -735 -1763 -1840
-1975 -3095 -77 -457 -86 -956 -24 -1420 103 -781 411 -1538 889 -2182 196
-264 525 -612 770 -813 588 -482 1259 -813 1971 -971 1589 -355 3228 119 4373
1265 1146 1145 1620 2784 1265 4373 -134 604 -411 1217 -776 1718 -277 381
-644 754 -1008 1023 -726 538 -1565 850 -2474 920 -155 12 -535 11 -696 -1z
m600 -289 c994 -59 1899 -425 2651 -1073 133 -115 390 -376 503 -512 431 -518
744 -1142 901 -1797 74 -310 109 -586 117 -928 29 -1197 -413 -2319 -1256
-3193 -100 -104 -322 -300 -460 -407 -616 -477 -1365 -787 -2131 -884 -323
-41 -752 -46 -1050 -11 -781 90 -1497 367 -2120 822 -336 245 -662 565 -919
902 -1134 1489 -1199 3557 -159 5114 326 489 746 909 1235 1235 788 526 1747
787 2688 732z"/>
<path d="M5361 5025 c-2 -2010 -1 -3655 3 -3655 5 0 556 373 673 457 l40 28
338 1015 c185 558 340 1018 344 1022 3 4 149 -235 324 -530 174 -295 321 -543
326 -551 10 -15 65 20 270 172 l94 69 -6 1562 c-4 858 -10 1747 -14 1974 l-6
413 -56 43 c-31 24 -148 105 -261 181 -113 76 -242 164 -287 197 -44 32 -84
58 -87 58 -3 0 -7 -573 -8 -1272 l-3 -1273 -110 168 c-60 92 -168 256 -239
364 -87 132 -131 191 -136 182 -4 -8 -108 -321 -231 -696 -123 -375 -227 -679
-231 -677 -5 3 -8 879 -8 1948 l0 1943 -359 256 c-197 142 -360 257 -362 257
-2 0 -6 -1645 -8 -3655z"/>
<path d="M4507 8528 c-48 -28 -169 -114 -270 -190 -100 -76 -228 -171 -283
-211 l-101 -72 -369 -998 c-285 -773 -371 -994 -380 -985 -6 7 -148 234 -314
503 -167 270 -306 494 -311 499 -4 5 -38 -13 -76 -41 -37 -27 -129 -92 -203
-143 -74 -51 -137 -94 -139 -96 -5 -5 -2 -1487 6 -2627 l6 -958 196 -147 c220
-165 549 -388 558 -378 4 3 9 540 12 1192 l6 1187 233 -347 c128 -190 236
-346 240 -346 4 0 120 305 257 678 l250 677 3 -1882 2 -1881 133 -95 c72 -52
249 -181 392 -286 l260 -192 6 133 c17 358 21 1934 8 3288 -7 789 -14 1960
-14 2603 0 771 -3 1167 -10 1167 -5 0 -49 -23 -98 -52z"/>
</g>
</svg>
